<svg xmlns="http://www.w3.org/2000/svg" viewBox="0 0 81.38 142.75"><defs><style>.cls-1{fill:#fbb03b;}.cls-1,.cls-2,.cls-3{stroke:#000;stroke-miterlimit:10;}.cls-2{fill:#fff;}.cls-3{fill:red;}</style></defs><title>Asset 1</title><g id="Layer_2" data-name="Layer 2"><g id="Layer_1-2" data-name="Layer 1"><polygon class="cls-1" points="43.88 43.8 35.73 48.21 68.54 8.07 76.69 3.66 43.88 43.8"/><polygon class="cls-2" points="46.47 46.9 38.31 51.31 35.73 48.21 43.88 43.8 46.47 46.9"/><polygon class="cls-2" points="65.89 70.27 57.73 74.67 35.67 48.17 43.82 43.76 65.89 70.27"/><polygon class="cls-3" points="60.91 70.1 52.76 74.51 35.91 54.25 44.06 49.84 60.91 70.1"/><polygon class="cls-2" points="41.44 46.68 33.29 51.09 35.67 48.17 43.82 43.76 41.44 46.68"/><polygon class="cls-1" points="76.52 126.95 68.37 131.36 65.08 18.58 73.23 14.16 76.52 126.95"/><polygon class="cls-1" points="41.44 46.68 33.29 51.09 4.6 16.59 12.76 12.18 41.44 46.68"/><polygon class="cls-3" points="38.85 67.42 30.69 71.83 30.58 67.9 38.73 63.49 38.85 67.42"/><polygon class="cls-2" points="45.22 89.3 37.07 93.71 52.76 74.51 60.91 70.1 45.22 89.3"/><polygon class="cls-3" points="45.22 89.3 37.06 93.71 52.76 74.51 60.91 70.1 45.22 89.3"/><polygon class="cls-2" points="45.39 95.34 37.24 99.75 39.64 96.81 47.8 92.4 45.39 95.34"/><polygon class="cls-2" points="45.58 95.11 37.43 99.52 57.73 74.67 65.89 70.27 45.58 95.11"/><polygon class="cls-2" points="45.4 95.33 37.24 99.75 37.07 93.71 45.22 89.3 45.4 95.33"/><polygon class="cls-2" points="29.92 67.13 21.77 71.54 35.91 54.25 44.06 49.84 29.92 67.13"/><polygon class="cls-3" points="45.4 95.33 45.22 89.3 60.91 70.1 44.06 49.84 29.91 67.13 38.85 67.42 38.73 63.49 42.52 63.62 42.75 71.48 30.05 71.06 25.08 70.9 23.38 68.87 41.44 46.68 43.82 43.76 65.89 70.27 45.58 95.11 45.4 95.33"/><polygon class="cls-1" points="73.23 14.16 46.47 46.9 43.88 43.8 76.69 3.66 80.61 137.7 45.39 95.34 47.8 92.4 76.52 126.95 73.23 14.16"/><polygon class="cls-1" points="80.61 137.7 72.46 142.11 37.24 99.75 45.39 95.34 80.61 137.7"/><polygon class="cls-1" points="42.81 92.24 34.66 96.65 37.06 93.71 45.22 89.3 42.81 92.24"/><polygon class="cls-3" points="42.75 71.48 34.59 75.89 21.9 75.47 30.05 71.06 42.75 71.48"/><polygon class="cls-2" points="30.05 71.06 21.9 75.47 16.93 75.31 25.08 70.9 30.05 71.06"/><polygon class="cls-1" points="23.38 68.87 15.23 73.28 33.29 51.09 41.44 46.68 23.38 68.87"/><polygon class="cls-1" points="42.81 92.24 23.38 68.87 25.08 70.9 30.05 71.06 45.22 89.3 42.81 92.24"/><polygon class="cls-2" points="25.08 70.9 16.93 75.31 15.23 73.28 23.38 68.87 25.08 70.9"/><polygon class="cls-1" points="42.81 92.24 34.66 96.65 15.23 73.28 23.38 68.87 42.81 92.24"/><polygon class="cls-1" points="16.05 124.97 7.9 129.38 34.66 96.65 42.81 92.24 16.05 124.97"/><polygon class="cls-1" points="12.58 135.47 8.66 1.43 43.88 43.8 46.47 46.9 65.9 70.27 47.8 92.4 45.58 95.11 65.89 70.27 43.82 43.76 41.44 46.68 12.76 12.18 16.05 124.97 42.81 92.24 45.22 89.3 60.91 70.1 45.22 89.3 45.4 95.33 12.58 135.47"/><polygon class="cls-1" points="12.58 135.47 4.42 139.88 0.51 5.84 8.66 1.43 12.58 135.47"/></g></g></svg>